<svg xmlns="http://www.w3.org/2000/svg" width="140.969" height="121.995" viewBox="0 0 140.969 121.995">
  <g id="Group_63" data-name="Group 63" transform="translate(-1222.649 -1707.224)">
    <g id="Group_59" data-name="Group 59" transform="translate(300.649 1223)">
      <rect id="Rectangle_7" data-name="Rectangle 7" width="105" height="105" transform="translate(925 486)" fill="#fff"/>
      <g id="Group_4" data-name="Group 4" transform="translate(501.776 10)">
        <g id="Group_1" data-name="Group 1" transform="translate(420.224 474.224)">
          <g id="Outline" transform="translate(0)">
            <path id="Path_2" data-name="Path 2" d="M106.074,2H7.478A5.478,5.478,0,0,0,2,7.478v98.6a5.478,5.478,0,0,0,5.478,5.478h98.6a5.478,5.478,0,0,0,5.478-5.478V7.478A5.478,5.478,0,0,0,106.074,2ZM107.9,106.074a1.826,1.826,0,0,1-1.826,1.826H7.478a1.826,1.826,0,0,1-1.826-1.826V20.259H107.9ZM5.652,16.607V7.478A1.826,1.826,0,0,1,7.478,5.652h98.6A1.826,1.826,0,0,1,107.9,7.478v9.129Z" transform="translate(-2 -2)"/>
            <path id="Path_3" data-name="Path 3" d="M6.529,6.519A1.886,1.886,0,0,0,6,7.816a1.826,1.826,0,0,0,.146.694,1.7,1.7,0,0,0,.383.6A1.833,1.833,0,1,0,9.122,6.519a1.912,1.912,0,0,0-2.593,0Z" transform="translate(1.303 1.314)"/>
            <path id="Path_4" data-name="Path 4" d="M10.529,6.534A1.921,1.921,0,0,0,10,7.831a2.474,2.474,0,0,0,.037.365,1.161,1.161,0,0,0,.11.329,1.382,1.382,0,0,0,.164.329,2.878,2.878,0,0,0,.219.274,1.851,1.851,0,0,0,2.593,0l.219-.274a1.382,1.382,0,0,0,.164-.329,1.161,1.161,0,0,0,.11-.329,2.474,2.474,0,0,0,.037-.365,1.826,1.826,0,0,0-3.122-1.3Z" transform="translate(4.607 1.299)"/>
            <path id="Path_5" data-name="Path 5" d="M14.53,6.519a1.833,1.833,0,1,0,2.593,0,1.912,1.912,0,0,0-2.593,0Z" transform="translate(7.91 1.314)"/>
          </g>
        </g>
      </g>
    </g>
    <g id="Group_61" data-name="Group 61" transform="translate(11.996 1.137)">
      <path id="Path_43" data-name="Path 43" d="M1315.913,1762l-14.5,7.71-1.641,8.063-2.218,11.509-5.933,4.568-9.282,5.175v18.595l11.21,6.173,6.224,2.6,9.389-3.787,6.755-5.773,8.732,5.773,9.017,3.787,15.932-8.778V1800l-15.932-10.713-1.547-15.006-8.173-10.086Z" transform="translate(-1.604 -1.494)" fill="#fff"/>
      <g id="Group_60" data-name="Group 60" transform="translate(1277.425 1757.425)">
        <g id="Group_54" data-name="Group 54" transform="translate(16.637)">
          <path id="Path_15" data-name="Path 15" d="M34.212,69.167l15.237,8.711a2.344,2.344,0,0,0,2.325,0L67.03,69.167l2.344-4.06V47.714A2.344,2.344,0,0,0,68.2,45.679l-15.237-8.7H48.277l-15.237,8.7a2.344,2.344,0,0,0-1.172,2.035V65.107Zm2.344-17.415,11.721,6.7V71.812l-11.721-6.7Zm25.751-4.039L50.621,54.39,38.936,47.714l11.686-6.676ZM52.965,71.8V58.443l11.721-6.7V65.107Z" transform="translate(-30.776 -36.049)" fill="#2f32ff"/>
          <path id="Path_40" data-name="Path 40" d="M1148.837,1774.089c-1.132-.481-1.717-1.823-4.7,0s4.7,1.819,4.7,1.819S1149.969,1774.569,1148.837,1774.089Z" transform="translate(-1126.636 -1773.161)" fill="#2f32ff"/>
          <path id="Path_41" data-name="Path 41" d="M5.392.928C4.259.447,3.675-.895.689.928s4.7,1.819,4.7,1.819S6.524,1.409,5.392.928Z" transform="matrix(-0.574, -0.819, 0.819, -0.574, 3.381, 34.377)" fill="#2f32ff"/>
          <path id="Path_42" data-name="Path 42" d="M5.392,1.819c-1.132.481-1.717,1.823-4.7,0S5.392,0,5.392,0,6.524,1.338,5.392,1.819Z" transform="matrix(0.574, -0.819, 0.819, 0.574, 34.105, 32.801)" fill="#2f32ff"/>
        </g>
        <g id="Group_55" data-name="Group 55" transform="translate(0 28.52)">
          <path id="Path_15-2" data-name="Path 15" d="M34.212,69.167l15.237,8.711a2.344,2.344,0,0,0,2.325,0L67.03,69.167l2.344-4.06V47.714A2.344,2.344,0,0,0,68.2,45.679l-15.237-8.7H48.277l-15.237,8.7a2.344,2.344,0,0,0-1.172,2.035V65.107Zm2.344-17.415,11.721,6.7V71.812l-11.721-6.7Zm25.751-4.039L50.621,54.39,38.936,47.714l11.686-6.676ZM52.965,71.8V58.443l11.721-6.7V65.107Z" transform="translate(-30.776 -36.049)" fill="#2f32ff"/>
          <path id="Path_40-2" data-name="Path 40" d="M1148.837,1774.089c-1.132-.481-1.717-1.823-4.7,0s4.7,1.819,4.7,1.819S1149.969,1774.569,1148.837,1774.089Z" transform="translate(-1126.636 -1773.161)" fill="#2f32ff"/>
          <path id="Path_41-2" data-name="Path 41" d="M5.392.928C4.259.447,3.675-.895.689.928s4.7,1.819,4.7,1.819S6.524,1.409,5.392.928Z" transform="matrix(-0.574, -0.819, 0.819, -0.574, 3.381, 34.377)" fill="#2f32ff"/>
          <path id="Path_42-2" data-name="Path 42" d="M5.392,1.819c-1.132.481-1.717,1.823-4.7,0S5.392,0,5.392,0,6.524,1.338,5.392,1.819Z" transform="matrix(0.574, -0.819, 0.819, 0.574, 34.105, 32.801)" fill="#2f32ff"/>
        </g>
        <g id="Group_56" data-name="Group 56" transform="translate(34.461 28.52)">
          <path id="Path_15-3" data-name="Path 15" d="M34.212,69.167l15.237,8.711a2.344,2.344,0,0,0,2.325,0L67.03,69.167l2.344-4.06V47.714A2.344,2.344,0,0,0,68.2,45.679l-15.237-8.7H48.277l-15.237,8.7a2.344,2.344,0,0,0-1.172,2.035V65.107Zm2.344-17.415,11.721,6.7V71.812l-11.721-6.7Zm25.751-4.039L50.621,54.39,38.936,47.714l11.686-6.676ZM52.965,71.8V58.443l11.721-6.7V65.107Z" transform="translate(-30.776 -36.049)" fill="#2f32ff"/>
          <path id="Path_40-3" data-name="Path 40" d="M1148.837,1774.089c-1.132-.481-1.717-1.823-4.7,0s4.7,1.819,4.7,1.819S1149.969,1774.569,1148.837,1774.089Z" transform="translate(-1126.636 -1773.161)" fill="#2f32ff"/>
          <path id="Path_41-3" data-name="Path 41" d="M5.392.928C4.259.447,3.675-.895.689.928s4.7,1.819,4.7,1.819S6.524,1.409,5.392.928Z" transform="matrix(-0.574, -0.819, 0.819, -0.574, 3.381, 34.377)" fill="#2f32ff"/>
          <path id="Path_42-3" data-name="Path 42" d="M5.392,1.819c-1.132.481-1.717,1.823-4.7,0S5.392,0,5.392,0,6.524,1.338,5.392,1.819Z" transform="matrix(0.574, -0.819, 0.819, 0.574, 34.105, 32.801)" fill="#2f32ff"/>
        </g>
      </g>
    </g>
  </g>
</svg>
