<svg xmlns="http://www.w3.org/2000/svg" width="156" height="109.552" viewBox="0 0 156 109.552">
  <g id="Group_102" data-name="Group 102" transform="translate(-1372 -1107.224)">
    <g id="Group_78" data-name="Group 78" transform="translate(473 623)">
      <rect id="Rectangle_7" data-name="Rectangle 7" width="105" height="105" transform="translate(925 486)" fill="#fff"/>
      <g id="Group_4" data-name="Group 4" transform="translate(501.776 10)">
        <g id="Group_1" data-name="Group 1" transform="translate(420.224 474.224)">
          <g id="Outline" transform="translate(0)">
            <path id="Path_2" data-name="Path 2" d="M106.074,2H7.478A5.478,5.478,0,0,0,2,7.478v98.6a5.478,5.478,0,0,0,5.478,5.478h98.6a5.478,5.478,0,0,0,5.478-5.478V7.478A5.478,5.478,0,0,0,106.074,2ZM107.9,106.074a1.826,1.826,0,0,1-1.826,1.826H7.478a1.826,1.826,0,0,1-1.826-1.826V20.259H107.9ZM5.652,16.607V7.478A1.826,1.826,0,0,1,7.478,5.652h98.6A1.826,1.826,0,0,1,107.9,7.478v9.129Z" transform="translate(-2 -2)"/>
            <path id="Path_3" data-name="Path 3" d="M6.529,6.519A1.886,1.886,0,0,0,6,7.816a1.826,1.826,0,0,0,.146.694,1.7,1.7,0,0,0,.383.6A1.833,1.833,0,1,0,9.122,6.519a1.912,1.912,0,0,0-2.593,0Z" transform="translate(1.303 1.314)"/>
            <path id="Path_4" data-name="Path 4" d="M10.529,6.534A1.921,1.921,0,0,0,10,7.831a2.474,2.474,0,0,0,.037.365,1.161,1.161,0,0,0,.11.329,1.382,1.382,0,0,0,.164.329,2.878,2.878,0,0,0,.219.274,1.851,1.851,0,0,0,2.593,0l.219-.274a1.382,1.382,0,0,0,.164-.329,1.161,1.161,0,0,0,.11-.329,2.474,2.474,0,0,0,.037-.365,1.826,1.826,0,0,0-3.122-1.3Z" transform="translate(4.607 1.299)"/>
            <path id="Path_5" data-name="Path 5" d="M14.53,6.519a1.833,1.833,0,1,0,2.593,0,1.912,1.912,0,0,0-2.593,0Z" transform="translate(7.91 1.314)"/>
          </g>
        </g>
      </g>
    </g>
    <g id="Group_75" data-name="Group 75" transform="translate(22 -602)">
      <g id="Rectangle_8" data-name="Rectangle 8" transform="translate(1350 1751)" fill="#fff" stroke="#010101" stroke-width="3.5">
        <rect width="46" height="45" rx="3" stroke="none"/>
        <rect x="1.75" y="1.75" width="42.5" height="41.5" rx="1.25" fill="none"/>
      </g>
      <g id="Polygon_1" data-name="Polygon 1" transform="translate(1355.519 1778.062)" fill="#fff">
        <path d="M 17.68389320373535 16.0191764831543 L 3.046809196472168 16.0191764831543 L 10.3653507232666 3.473099946975708 L 17.68389320373535 16.0191764831543 Z" stroke="none"/>
        <path d="M 10.3653507232666 6.946229934692383 L 6.093633651733398 14.26917743682861 L 14.6370677947998 14.26917743682861 L 10.3653507232666 6.946229934692383 M 10.3653507232666 -1.9073486328125e-06 L 20.7307014465332 17.7691764831543 L 0 17.7691764831543 L 10.3653507232666 -1.9073486328125e-06 Z" stroke="none" fill="#010101"/>
      </g>
      <g id="Polygon_2" data-name="Polygon 2" transform="translate(1363.981 1769.6)" fill="#fff">
        <path d="M 27.42169570922852 24.48068428039551 L 3.039746046066284 24.48068428039551 L 15.23072052001953 3.485120296478271 L 27.42169570922852 24.48068428039551 Z" stroke="none"/>
        <path d="M 15.23072052001953 6.970226287841797 L 6.079484939575195 22.73068428039551 L 24.38195610046387 22.73068428039551 L 15.23072052001953 6.970226287841797 M 15.23072052001953 3.814697265625e-06 L 30.46144104003906 26.23068428039551 L 0 26.23068428039551 L 15.23072052001953 3.814697265625e-06 Z" stroke="none" fill="#010101"/>
      </g>
      <g id="Ellipse_3" data-name="Ellipse 3" transform="translate(1356 1757)" fill="#fff" stroke="#000" stroke-width="3.5">
        <circle cx="5" cy="5" r="5" stroke="none"/>
        <circle cx="5" cy="5" r="3.25" fill="none"/>
      </g>
    </g>
    <g id="Group_79" data-name="Group 79" transform="translate(77 -602)">
      <g id="Rectangle_8-2" data-name="Rectangle 8" transform="translate(1350 1751)" fill="#fff" stroke="#2f32ff" stroke-width="3.5">
        <rect width="46" height="45" rx="3" stroke="none"/>
        <rect x="1.75" y="1.75" width="42.5" height="41.5" rx="1.25" fill="none"/>
      </g>
      <g id="Polygon_1-2" data-name="Polygon 1" transform="translate(1355.519 1778.062)" fill="#fff">
        <path d="M 17.68389320373535 16.0191764831543 L 3.046809196472168 16.0191764831543 L 10.3653507232666 3.473099946975708 L 17.68389320373535 16.0191764831543 Z" stroke="none"/>
        <path d="M 10.3653507232666 6.946229934692383 L 6.093633651733398 14.26917743682861 L 14.6370677947998 14.26917743682861 L 10.3653507232666 6.946229934692383 M 10.3653507232666 -1.9073486328125e-06 L 20.7307014465332 17.7691764831543 L 0 17.7691764831543 L 10.3653507232666 -1.9073486328125e-06 Z" stroke="none" fill="#2f32ff"/>
      </g>
      <g id="Polygon_2-2" data-name="Polygon 2" transform="translate(1363.981 1769.6)" fill="#fff">
        <path d="M 27.42169570922852 24.48068428039551 L 3.039746046066284 24.48068428039551 L 15.23072052001953 3.485120296478271 L 27.42169570922852 24.48068428039551 Z" stroke="none"/>
        <path d="M 15.23072052001953 6.970226287841797 L 6.079484939575195 22.73068428039551 L 24.38195610046387 22.73068428039551 L 15.23072052001953 6.970226287841797 M 15.23072052001953 3.814697265625e-06 L 30.46144104003906 26.23068428039551 L 0 26.23068428039551 L 15.23072052001953 3.814697265625e-06 Z" stroke="none" fill="#2f32ff"/>
      </g>
      <g id="Ellipse_3-2" data-name="Ellipse 3" transform="translate(1356 1757)" fill="#fff" stroke="#2f32ff" stroke-width="3.5">
        <circle cx="5" cy="5" r="5" stroke="none"/>
        <circle cx="5" cy="5" r="3.25" fill="none"/>
      </g>
    </g>
    <g id="Group_76" data-name="Group 76" transform="translate(132 -602)">
      <g id="Rectangle_8-3" data-name="Rectangle 8" transform="translate(1350 1751)" fill="#fff" stroke="#010101" stroke-width="3.5">
        <rect width="46" height="45" rx="3" stroke="none"/>
        <rect x="1.75" y="1.75" width="42.5" height="41.5" rx="1.25" fill="none"/>
      </g>
      <g id="Polygon_1-3" data-name="Polygon 1" transform="translate(1355.519 1778.062)" fill="#fff">
        <path d="M 17.68389320373535 16.0191764831543 L 3.046809196472168 16.0191764831543 L 10.3653507232666 3.473099946975708 L 17.68389320373535 16.0191764831543 Z" stroke="none"/>
        <path d="M 10.3653507232666 6.946229934692383 L 6.093633651733398 14.26917743682861 L 14.6370677947998 14.26917743682861 L 10.3653507232666 6.946229934692383 M 10.3653507232666 -1.9073486328125e-06 L 20.7307014465332 17.7691764831543 L 0 17.7691764831543 L 10.3653507232666 -1.9073486328125e-06 Z" stroke="none" fill="#010101"/>
      </g>
      <g id="Polygon_2-3" data-name="Polygon 2" transform="translate(1363.981 1769.6)" fill="#fff">
        <path d="M 27.42169570922852 24.48068428039551 L 3.039746046066284 24.48068428039551 L 15.23072052001953 3.485120296478271 L 27.42169570922852 24.48068428039551 Z" stroke="none"/>
        <path d="M 15.23072052001953 6.970226287841797 L 6.079484939575195 22.73068428039551 L 24.38195610046387 22.73068428039551 L 15.23072052001953 6.970226287841797 M 15.23072052001953 3.814697265625e-06 L 30.46144104003906 26.23068428039551 L 0 26.23068428039551 L 15.23072052001953 3.814697265625e-06 Z" stroke="none" fill="#010101"/>
      </g>
      <g id="Ellipse_3-3" data-name="Ellipse 3" transform="translate(1356 1757)" fill="#fff" stroke="#010101" stroke-width="3.5">
        <circle cx="5" cy="5" r="5" stroke="none"/>
        <circle cx="5" cy="5" r="3.25" fill="none"/>
      </g>
    </g>
  </g>
</svg>
