<svg xmlns="http://www.w3.org/2000/svg" width="109.552" height="109.552" viewBox="0 0 109.552 109.552">
  <g id="Group_29" data-name="Group 29" transform="translate(-1398 -486.224)">
    <g id="Group_28" data-name="Group 28" transform="translate(476 2)">
      <rect id="Rectangle_7" data-name="Rectangle 7" width="105" height="105" transform="translate(925 486)" fill="#fff"/>
      <g id="Group_4" data-name="Group 4" transform="translate(501.776 10)">
        <g id="Group_1" data-name="Group 1" transform="translate(420.224 474.224)">
          <g id="Outline" transform="translate(0)">
            <path id="Path_2" data-name="Path 2" d="M106.074,2H7.478A5.478,5.478,0,0,0,2,7.478v98.6a5.478,5.478,0,0,0,5.478,5.478h98.6a5.478,5.478,0,0,0,5.478-5.478V7.478A5.478,5.478,0,0,0,106.074,2ZM107.9,106.074a1.826,1.826,0,0,1-1.826,1.826H7.478a1.826,1.826,0,0,1-1.826-1.826V20.259H107.9ZM5.652,16.607V7.478A1.826,1.826,0,0,1,7.478,5.652h98.6A1.826,1.826,0,0,1,107.9,7.478v9.129Z" transform="translate(-2 -2)"/>
            <path id="Path_3" data-name="Path 3" d="M6.529,6.519A1.886,1.886,0,0,0,6,7.816a1.826,1.826,0,0,0,.146.694,1.7,1.7,0,0,0,.383.6A1.833,1.833,0,1,0,9.122,6.519a1.912,1.912,0,0,0-2.593,0Z" transform="translate(1.303 1.314)"/>
            <path id="Path_4" data-name="Path 4" d="M10.529,6.534A1.921,1.921,0,0,0,10,7.831a2.474,2.474,0,0,0,.037.365,1.161,1.161,0,0,0,.11.329,1.382,1.382,0,0,0,.164.329,2.878,2.878,0,0,0,.219.274,1.851,1.851,0,0,0,2.593,0l.219-.274a1.382,1.382,0,0,0,.164-.329,1.161,1.161,0,0,0,.11-.329,2.474,2.474,0,0,0,.037-.365,1.826,1.826,0,0,0-3.122-1.3Z" transform="translate(4.607 1.299)"/>
            <path id="Path_5" data-name="Path 5" d="M14.53,6.519a1.833,1.833,0,1,0,2.593,0,1.912,1.912,0,0,0-2.593,0Z" transform="translate(7.91 1.314)"/>
          </g>
        </g>
      </g>
    </g>
    <g id="multimedia" transform="translate(1405.351 496.964)">
      <path id="Path_15" data-name="Path 15" d="M29.968,71.71l-6.437-1.754,10.309-5.89L46.663,71.4a1.973,1.973,0,0,0,1.957,0l12.838-7.33,10.311,5.89L65.33,71.71l4.932,2.817,9.126-2.488L76.9,62.914,71.968,60.1l1.758,6.437-10.3-5.882V46.012a1.973,1.973,0,0,0-.986-1.712L49.622,36.977V25.242l4.717,4.719V24.281l-6.689-6.687L40.96,24.281v5.679l4.717-4.719V36.977L32.854,44.3a1.973,1.973,0,0,0-.986,1.712V60.649l-10.3,5.879,1.758-6.437L18.4,62.91l-2.488,9.126,9.126,2.488Zm5.845-22.3,9.863,5.636V66.291l-9.863-5.642Zm21.67-3.4L47.649,51.63l-9.834-5.618,9.834-5.618ZM49.622,66.285V55.041l9.863-5.636V60.649Z" fill="#2f32ff"/>
    </g>
  </g>
</svg>
