<svg xmlns="http://www.w3.org/2000/svg" width="168.395" height="109.552" viewBox="0 0 168.395 109.552">
  <g id="Group_43" data-name="Group 43" transform="translate(-435 -1950.224)">
    <g id="Group_38" data-name="Group 38" transform="translate(20 1476)">
      <g id="Group_7" data-name="Group 7" transform="translate(-507 -10)">
        <rect id="Rectangle_7" data-name="Rectangle 7" width="105" height="105" transform="translate(925 486)" fill="#fff"/>
        <g id="Group_4" data-name="Group 4" transform="translate(501.776 10)">
          <g id="Group_1" data-name="Group 1" transform="translate(420.224 474.224)">
            <g id="Outline" transform="translate(0)">
              <path id="Path_2" data-name="Path 2" d="M106.074,2H7.478A5.478,5.478,0,0,0,2,7.478v98.6a5.478,5.478,0,0,0,5.478,5.478h98.6a5.478,5.478,0,0,0,5.478-5.478V7.478A5.478,5.478,0,0,0,106.074,2ZM107.9,106.074a1.826,1.826,0,0,1-1.826,1.826H7.478a1.826,1.826,0,0,1-1.826-1.826V20.259H107.9ZM5.652,16.607V7.478A1.826,1.826,0,0,1,7.478,5.652h98.6A1.826,1.826,0,0,1,107.9,7.478v9.129Z" transform="translate(-2 -2)"/>
              <path id="Path_3" data-name="Path 3" d="M6.529,6.519A1.886,1.886,0,0,0,6,7.816a1.826,1.826,0,0,0,.146.694,1.7,1.7,0,0,0,.383.6A1.833,1.833,0,1,0,9.122,6.519a1.912,1.912,0,0,0-2.593,0Z" transform="translate(1.303 1.314)"/>
              <path id="Path_4" data-name="Path 4" d="M10.529,6.534A1.921,1.921,0,0,0,10,7.831a2.474,2.474,0,0,0,.037.365,1.161,1.161,0,0,0,.11.329,1.382,1.382,0,0,0,.164.329,2.878,2.878,0,0,0,.219.274,1.851,1.851,0,0,0,2.593,0l.219-.274a1.382,1.382,0,0,0,.164-.329,1.161,1.161,0,0,0,.11-.329,2.474,2.474,0,0,0,.037-.365,1.826,1.826,0,0,0-3.122-1.3Z" transform="translate(4.607 1.299)"/>
              <path id="Path_5" data-name="Path 5" d="M14.53,6.519a1.833,1.833,0,1,0,2.593,0,1.912,1.912,0,0,0-2.593,0Z" transform="translate(7.91 1.314)"/>
            </g>
          </g>
        </g>
      </g>
    </g>
    <g id="Group_39" data-name="Group 39" transform="translate(119.362 889.221)">
      <g id="Path_16" data-name="Path 16" transform="translate(361.164 1087)" fill="#fff" stroke-linecap="round">
        <path d="M 20.39413452148438 11.25156021118164 L 1.500004410743713 11.25156021118164 L 1.500004410743713 1.50000011920929 L 20.39413452148438 1.50000011920929 L 20.39413452148438 11.25156021118164 Z" stroke="none"/>
        <path d="M 2.999994277954102 3 L 2.999994277954102 9.751560211181641 L 18.89412498474121 9.751560211181641 L 18.89412498474121 3 L 2.999994277954102 3 M 1.042573928833008 0 L 20.85155487060547 0 C 21.42734527587891 0 21.89412498474121 0.2693004608154297 21.89412498474121 0.6014900207519531 L 21.89412498474121 12.15007019042969 C 21.89412498474121 12.48225975036621 21.42734527587891 12.75156021118164 20.85155487060547 12.75156021118164 L 1.042573928833008 12.75156021118164 C 0.4667739868164062 12.75156021118164 -5.7220458984375e-06 12.48225975036621 -5.7220458984375e-06 12.15007019042969 L -5.7220458984375e-06 0.6014900207519531 C -5.7220458984375e-06 0.2693004608154297 0.4667739868164062 0 1.042573928833008 0 Z" stroke="none" fill="#2f32ff"/>
      </g>
      <g id="Path_17" data-name="Path 17" transform="translate(377.796 1112.437)" fill="#fff" stroke-linecap="round">
        <path d="M 20.39413452148438 11.25156021118164 L 1.500004410743713 11.25156021118164 L 1.500004410743713 1.50000011920929 L 20.39413452148438 1.50000011920929 L 20.39413452148438 11.25156021118164 Z" stroke="none"/>
        <path d="M 2.999994277954102 3 L 2.999994277954102 9.751560211181641 L 18.89412498474121 9.751560211181641 L 18.89412498474121 3 L 2.999994277954102 3 M 1.042573928833008 0 L 20.85155487060547 0 C 21.42734527587891 0 21.89412498474121 0.2693004608154297 21.89412498474121 0.6014900207519531 L 21.89412498474121 12.15007019042969 C 21.89412498474121 12.48225975036621 21.42734527587891 12.75156021118164 20.85155487060547 12.75156021118164 L 1.042573928833008 12.75156021118164 C 0.4667739868164062 12.75156021118164 -5.7220458984375e-06 12.48225975036621 -5.7220458984375e-06 12.15007019042969 L -5.7220458984375e-06 0.6014900207519531 C -5.7220458984375e-06 0.2693004608154297 0.4667739868164062 0 1.042573928833008 0 Z" stroke="none" fill="#2f32ff"/>
      </g>
      <g id="Path_21" data-name="Path 21" transform="translate(363.61 1137.874)" fill="#fff" stroke-linecap="round">
        <path d="M 20.39413452148438 11.25156021118164 L 1.500004410743713 11.25156021118164 L 1.500004410743713 1.50000011920929 L 20.39413452148438 1.50000011920929 L 20.39413452148438 11.25156021118164 Z" stroke="none"/>
        <path d="M 2.999994277954102 3 L 2.999994277954102 9.751560211181641 L 18.89412498474121 9.751560211181641 L 18.89412498474121 3 L 2.999994277954102 3 M 1.042573928833008 0 L 20.85155487060547 0 C 21.42734527587891 0 21.89412498474121 0.2693004608154297 21.89412498474121 0.6014900207519531 L 21.89412498474121 12.15007019042969 C 21.89412498474121 12.48225975036621 21.42734527587891 12.75156021118164 20.85155487060547 12.75156021118164 L 1.042573928833008 12.75156021118164 C 0.4667739868164062 12.75156021118164 -5.7220458984375e-06 12.48225975036621 -5.7220458984375e-06 12.15007019042969 L -5.7220458984375e-06 0.6014900207519531 C -5.7220458984375e-06 0.2693004608154297 0.4667739868164062 0 1.042573928833008 0 Z" stroke="none" fill="#2f32ff"/>
      </g>
      <g id="Path_28" data-name="Path 28" transform="translate(331.61 1137.874)" fill="#fff" stroke-linecap="round">
        <path d="M 20.39413452148438 11.25156021118164 L 1.500004410743713 11.25156021118164 L 1.500004410743713 1.50000011920929 L 20.39413452148438 1.50000011920929 L 20.39413452148438 11.25156021118164 Z" stroke="none"/>
        <path d="M 2.999994277954102 3 L 2.999994277954102 9.751560211181641 L 18.89412498474121 9.751560211181641 L 18.89412498474121 3 L 2.999994277954102 3 M 1.042573928833008 0 L 20.85155487060547 0 C 21.42734527587891 0 21.89412498474121 0.2693004608154297 21.89412498474121 0.6014900207519531 L 21.89412498474121 12.15007019042969 C 21.89412498474121 12.48225975036621 21.42734527587891 12.75156021118164 20.85155487060547 12.75156021118164 L 1.042573928833008 12.75156021118164 C 0.4667739868164062 12.75156021118164 -5.7220458984375e-06 12.48225975036621 -5.7220458984375e-06 12.15007019042969 L -5.7220458984375e-06 0.6014900207519531 C -5.7220458984375e-06 0.2693004608154297 0.4667739868164062 0 1.042573928833008 0 Z" stroke="none" fill="#2f32ff"/>
      </g>
      <g id="Path_22" data-name="Path 22" transform="translate(394.428 1137.874)" fill="#fff" stroke-linecap="round">
        <path d="M 20.39413452148438 11.25156021118164 L 1.500004410743713 11.25156021118164 L 1.500004410743713 1.50000011920929 L 20.39413452148438 1.50000011920929 L 20.39413452148438 11.25156021118164 Z" stroke="none"/>
        <path d="M 2.999994277954102 3 L 2.999994277954102 9.751560211181641 L 18.89412498474121 9.751560211181641 L 18.89412498474121 3 L 2.999994277954102 3 M 1.042573928833008 0 L 20.85155487060547 0 C 21.42734527587891 0 21.89412498474121 0.2693004608154297 21.89412498474121 0.6014900207519531 L 21.89412498474121 12.15007019042969 C 21.89412498474121 12.48225975036621 21.42734527587891 12.75156021118164 20.85155487060547 12.75156021118164 L 1.042573928833008 12.75156021118164 C 0.4667739868164062 12.75156021118164 -5.7220458984375e-06 12.48225975036621 -5.7220458984375e-06 12.15007019042969 L -5.7220458984375e-06 0.6014900207519531 C -5.7220458984375e-06 0.2693004608154297 0.4667739868164062 0 1.042573928833008 0 Z" stroke="none" fill="#2f32ff"/>
      </g>
      <g id="Path_20" data-name="Path 20" transform="translate(430.138 1112.437)" fill="#fff" stroke-linecap="round">
        <path d="M 20.39413452148438 11.25156021118164 L 1.500004410743713 11.25156021118164 L 1.500004410743713 1.50000011920929 L 20.39413452148438 1.50000011920929 L 20.39413452148438 11.25156021118164 Z" stroke="none"/>
        <path d="M 2.999994277954102 3 L 2.999994277954102 9.751560211181641 L 18.89412498474121 9.751560211181641 L 18.89412498474121 3 L 2.999994277954102 3 M 1.042573928833008 0 L 20.85155487060547 0 C 21.42734527587891 0 21.89412498474121 0.2693004608154297 21.89412498474121 0.6014900207519531 L 21.89412498474121 12.15007019042969 C 21.89412498474121 12.48225975036621 21.42734527587891 12.75156021118164 20.85155487060547 12.75156021118164 L 1.042573928833008 12.75156021118164 C 0.4667739868164062 12.75156021118164 -5.7220458984375e-06 12.48225975036621 -5.7220458984375e-06 12.15007019042969 L -5.7220458984375e-06 0.6014900207519531 C -5.7220458984375e-06 0.2693004608154297 0.4667739868164062 0 1.042573928833008 0 Z" stroke="none" fill="#262628"/>
      </g>
      <g id="Path_29" data-name="Path 29" transform="translate(462.138 1112.437)" fill="#fff" stroke-linecap="round">
        <path d="M 20.39413452148438 11.25156021118164 L 1.500004410743713 11.25156021118164 L 1.500004410743713 1.50000011920929 L 20.39413452148438 1.50000011920929 L 20.39413452148438 11.25156021118164 Z" stroke="none"/>
        <path d="M 2.999994277954102 3 L 2.999994277954102 9.751560211181641 L 18.89412498474121 9.751560211181641 L 18.89412498474121 3 L 2.999994277954102 3 M 1.042573928833008 0 L 20.85155487060547 0 C 21.42734527587891 0 21.89412498474121 0.2693004608154297 21.89412498474121 0.6014900207519531 L 21.89412498474121 12.15007019042969 C 21.89412498474121 12.48225975036621 21.42734527587891 12.75156021118164 20.85155487060547 12.75156021118164 L 1.042573928833008 12.75156021118164 C 0.4667739868164062 12.75156021118164 -5.7220458984375e-06 12.48225975036621 -5.7220458984375e-06 12.15007019042969 L -5.7220458984375e-06 0.6014900207519531 C -5.7220458984375e-06 0.2693004608154297 0.4667739868164062 0 1.042573928833008 0 Z" stroke="none" fill="#262628"/>
      </g>
      <g id="Path_27" data-name="Path 27" transform="translate(446.138 1137.385)" fill="#fff" stroke-linecap="round">
        <path d="M 20.39413452148438 11.25156021118164 L 1.500004410743713 11.25156021118164 L 1.500004410743713 1.50000011920929 L 20.39413452148438 1.50000011920929 L 20.39413452148438 11.25156021118164 Z" stroke="none"/>
        <path d="M 2.999994277954102 3 L 2.999994277954102 9.751560211181641 L 18.89412498474121 9.751560211181641 L 18.89412498474121 3 L 2.999994277954102 3 M 1.042573928833008 0 L 20.85155487060547 0 C 21.42734527587891 0 21.89412498474121 0.2693004608154297 21.89412498474121 0.6014900207519531 L 21.89412498474121 12.15007019042969 C 21.89412498474121 12.48225975036621 21.42734527587891 12.75156021118164 20.85155487060547 12.75156021118164 L 1.042573928833008 12.75156021118164 C 0.4667739868164062 12.75156021118164 -5.7220458984375e-06 12.48225975036621 -5.7220458984375e-06 12.15007019042969 L -5.7220458984375e-06 0.6014900207519531 C -5.7220458984375e-06 0.2693004608154297 0.4667739868164062 0 1.042573928833008 0 Z" stroke="none" fill="#262628"/>
      </g>
      <g id="Path_18" data-name="Path 18" transform="translate(346 1112.437)" fill="#fff" stroke-linecap="round">
        <path d="M 20.39413452148438 11.25156021118164 L 1.500004410743713 11.25156021118164 L 1.500004410743713 1.50000011920929 L 20.39413452148438 1.50000011920929 L 20.39413452148438 11.25156021118164 Z" stroke="none"/>
        <path d="M 2.999994277954102 3 L 2.999994277954102 9.751560211181641 L 18.89412498474121 9.751560211181641 L 18.89412498474121 3 L 2.999994277954102 3 M 1.042573928833008 0 L 20.85155487060547 0 C 21.42734527587891 0 21.89412498474121 0.2693004608154297 21.89412498474121 0.6014900207519531 L 21.89412498474121 12.15007019042969 C 21.89412498474121 12.48225975036621 21.42734527587891 12.75156021118164 20.85155487060547 12.75156021118164 L 1.042573928833008 12.75156021118164 C 0.4667739868164062 12.75156021118164 -5.7220458984375e-06 12.48225975036621 -5.7220458984375e-06 12.15007019042969 L -5.7220458984375e-06 0.6014900207519531 C -5.7220458984375e-06 0.2693004608154297 0.4667739868164062 0 1.042573928833008 0 Z" stroke="none" fill="#2f32ff"/>
      </g>
      <g id="Group_30" data-name="Group 30" transform="translate(377.459 1126.418)">
        <path id="Subtraction_1" data-name="Subtraction 1" d="M4.237,9.455H2.308V3.741L0,6.05V3.272L3.272,0,6.545,3.271V6.05L4.237,3.741V9.454Z" transform="translate(6.544 10.912) rotate(180)" fill="#2f32ff"/>
        <path id="Path_25" data-name="Path 25" d="M471.027,1170.141l-.034-2.561h1.984l-.047,3.126-1.1-1.488" transform="translate(-468.703 -1167.58)" fill="#2f32ff"/>
      </g>
      <g id="Group_40" data-name="Group 40" transform="translate(345.459 1126.418)">
        <path id="Subtraction_1-2" data-name="Subtraction 1" d="M4.237,9.455H2.308V3.741L0,6.05V3.272L3.272,0,6.545,3.271V6.05L4.237,3.741V9.454Z" transform="translate(6.544 10.912) rotate(180)" fill="#2f32ff"/>
        <path id="Path_25-2" data-name="Path 25" d="M471.027,1170.141l-.034-2.561h1.984l-.047,3.126-1.1-1.488" transform="translate(-468.703 -1167.58)" fill="#2f32ff"/>
      </g>
      <g id="Group_32" data-name="Group 32" transform="translate(377.949 1100.491)">
        <path id="Subtraction_1-3" data-name="Subtraction 1" d="M4.237,9.455H2.308V3.741L0,6.05V3.272L3.272,0,6.545,3.271V6.05L4.237,3.741V9.454Z" transform="translate(6.544 10.912) rotate(180)" fill="#2f32ff"/>
        <path id="Path_25-3" data-name="Path 25" d="M471.027,1170.141l-.034-2.561h1.984l-.047,3.126-1.1-1.488" transform="translate(-468.703 -1167.58)" fill="#2f32ff"/>
      </g>
      <g id="Group_33" data-name="Group 33" transform="translate(360.338 1100.491)">
        <path id="Subtraction_1-4" data-name="Subtraction 1" d="M4.237,9.455H2.308V3.741L0,6.05V3.272L3.272,0,6.545,3.271V6.05L4.237,3.741V9.454Z" transform="translate(6.544 10.912) rotate(180)" fill="#2f32ff"/>
        <path id="Path_25-4" data-name="Path 25" d="M471.027,1170.141l-.034-2.561h1.984l-.047,3.126-1.1-1.488" transform="translate(-468.703 -1167.58)" fill="#2f32ff"/>
      </g>
      <g id="Group_31" data-name="Group 31" transform="translate(394.091 1126.418)">
        <path id="Subtraction_1-5" data-name="Subtraction 1" d="M4.237,9.455H2.308V3.741L0,6.05V3.272L3.272,0,6.545,3.271V6.05L4.237,3.741V9.454Z" transform="translate(6.544 10.912) rotate(180)" fill="#2f32ff"/>
        <path id="Path_25-5" data-name="Path 25" d="M471.027,1170.141l-.034-2.561h1.984l-.047,3.126-1.1-1.488" transform="translate(-468.703 -1167.58)" fill="#2f32ff"/>
      </g>
      <g id="Group_34" data-name="Group 34" transform="translate(446.628 1126.418)">
        <path id="Subtraction_1-6" data-name="Subtraction 1" d="M4.237,9.455H2.308V3.741L0,6.05V3.272L3.272,0,6.545,3.271V6.05L4.237,3.741V9.454Z" transform="translate(6.544 10.912) rotate(180)" fill="#262628"/>
        <path id="Path_25-6" data-name="Path 25" d="M471.027,1170.141l-.034-2.561h1.984l-.047,3.126-1.1-1.488" transform="translate(-468.703 -1167.58)" fill="#262628"/>
      </g>
      <g id="Group_41" data-name="Group 41" transform="translate(461.628 1126.418)">
        <path id="Subtraction_1-7" data-name="Subtraction 1" d="M4.237,9.455H2.308V3.741L0,6.05V3.272L3.272,0,6.545,3.271V6.05L4.237,3.741V9.454Z" transform="translate(6.544 10.912) rotate(180)" fill="#262628"/>
        <path id="Path_25-7" data-name="Path 25" d="M471.027,1170.141l-.034-2.561h1.984l-.047,3.126-1.1-1.488" transform="translate(-468.703 -1167.58)" fill="#262628"/>
      </g>
    </g>
  </g>
</svg>
