<svg xmlns="http://www.w3.org/2000/svg" width="890.726" height="421.728" viewBox="0 0 890.726 421.728">
  <g id="Group_49" data-name="Group 49" transform="translate(-174.321 -2964.169)">
    <g id="Group_46" data-name="Group 46" transform="translate(0 654)">
      <g id="Group_44" data-name="Group 44" transform="translate(-276.652 333.949)">
        <g id="Group_39" data-name="Group 39" transform="translate(450.973 1976.221)">
          <g id="Path_16" data-name="Path 16" transform="translate(195.892 0)" fill="#fff" stroke-linecap="round">
            <path d="M 138.2091369628906 79.52041625976562 L 6.910450458526611 79.52041625976562 C 6.062772274017334 79.52041625976562 5.42178201675415 79.37655639648438 4.999996185302734 79.23080444335938 L 4.999996185302734 5.289618015289307 C 5.42178201675415 5.143870830535889 6.062772274017334 5.000007629394531 6.910450458526611 5.000007629394531 L 138.2091369628906 5.000007629394531 C 139.0568084716797 5.000007629394531 139.6977996826172 5.143870830535889 140.1195831298828 5.289618015289307 L 140.1195831298828 79.23080444335938 C 139.6977996826172 79.37655639648438 139.0568084716797 79.52041625976562 138.2091369628906 79.52041625976562 Z" stroke="none"/>
            <path d="M 9.999984741210938 9.999992370605469 L 9.999984741210938 74.51976776123047 L 135.1195678710938 74.49272918701172 L 135.1195678710938 9.999992370605469 L 9.999984741210938 9.999992370605469 M 6.91046142578125 -7.62939453125e-06 L 138.2091217041016 -7.62939453125e-06 C 142.0256500244141 -7.62939453125e-06 145.1195678710938 1.784965515136719 145.1195678710938 3.986824035644531 L 145.1195678710938 80.53359985351562 C 145.1195678710938 82.73545837402344 142.0256500244141 84.52043151855469 138.2091217041016 84.52043151855469 L 6.91046142578125 84.52043151855469 C 3.093902587890625 84.52043151855469 -1.52587890625e-05 82.73545837402344 -1.52587890625e-05 80.53359985351562 L -1.52587890625e-05 3.986824035644531 C -1.52587890625e-05 1.784965515136719 3.093902587890625 -7.62939453125e-06 6.91046142578125 -7.62939453125e-06 Z" stroke="none" fill="#2f32ff"/>
          </g>
          <g id="Path_17" data-name="Path 17" transform="translate(306.133 168.604)" fill="#fff" stroke-linecap="round">
            <path d="M 138.2091369628906 79.52041625976562 L 6.910450458526611 79.52041625976562 C 6.062772274017334 79.52041625976562 5.42178201675415 79.37655639648438 4.999996185302734 79.23080444335938 L 4.999996185302734 5.289618015289307 C 5.42178201675415 5.143870830535889 6.062772274017334 5.000007629394531 6.910450458526611 5.000007629394531 L 138.2091369628906 5.000007629394531 C 139.0568084716797 5.000007629394531 139.6977996826172 5.143870830535889 140.1195831298828 5.289618015289307 L 140.1195831298828 79.23080444335938 C 139.6977996826172 79.37655639648438 139.0568084716797 79.52041625976562 138.2091369628906 79.52041625976562 Z" stroke="none"/>
            <path d="M 9.999984741210938 9.999992370605469 L 9.999984741210938 74.51976776123047 L 135.1195678710938 74.49272918701172 L 135.1195678710938 9.999992370605469 L 9.999984741210938 9.999992370605469 M 6.91046142578125 -7.62939453125e-06 L 138.2091217041016 -7.62939453125e-06 C 142.0256500244141 -7.62939453125e-06 145.1195678710938 1.784965515136719 145.1195678710938 3.986824035644531 L 145.1195678710938 80.53359985351562 C 145.1195678710938 82.73545837402344 142.0256500244141 84.52043151855469 138.2091217041016 84.52043151855469 L 6.91046142578125 84.52043151855469 C 3.093902587890625 84.52043151855469 -1.52587890625e-05 82.73545837402344 -1.52587890625e-05 80.53359985351562 L -1.52587890625e-05 3.986824035644531 C -1.52587890625e-05 1.784965515136719 3.093902587890625 -7.62939453125e-06 6.91046142578125 -7.62939453125e-06 Z" stroke="none" fill="#2f32ff"/>
          </g>
          <g id="Path_21" data-name="Path 21" transform="translate(212.104 337.208)" fill="#fff" stroke-linecap="round">
            <path d="M 138.2091369628906 79.52041625976562 L 6.910450458526611 79.52041625976562 C 6.062772274017334 79.52041625976562 5.42178201675415 79.37655639648438 4.999996185302734 79.23080444335938 L 4.999996185302734 5.289618015289307 C 5.42178201675415 5.143870830535889 6.062772274017334 5.000007629394531 6.910450458526611 5.000007629394531 L 138.2091369628906 5.000007629394531 C 139.0568084716797 5.000007629394531 139.6977996826172 5.143870830535889 140.1195831298828 5.289618015289307 L 140.1195831298828 79.23080444335938 C 139.6977996826172 79.37655639648438 139.0568084716797 79.52041625976562 138.2091369628906 79.52041625976562 Z" stroke="none"/>
            <path d="M 9.999984741210938 9.999992370605469 L 9.999984741210938 74.51976776123047 L 135.1195678710938 74.49272918701172 L 135.1195678710938 9.999992370605469 L 9.999984741210938 9.999992370605469 M 6.91046142578125 -7.62939453125e-06 L 138.2091217041016 -7.62939453125e-06 C 142.0256500244141 -7.62939453125e-06 145.1195678710938 1.784965515136719 145.1195678710938 3.986824035644531 L 145.1195678710938 80.53359985351562 C 145.1195678710938 82.73545837402344 142.0256500244141 84.52043151855469 138.2091217041016 84.52043151855469 L 6.91046142578125 84.52043151855469 C 3.093902587890625 84.52043151855469 -1.52587890625e-05 82.73545837402344 -1.52587890625e-05 80.53359985351562 L -1.52587890625e-05 3.986824035644531 C -1.52587890625e-05 1.784965515136719 3.093902587890625 -7.62939453125e-06 6.91046142578125 -7.62939453125e-06 Z" stroke="none" fill="#2f32ff"/>
          </g>
          <g id="Path_28" data-name="Path 28" transform="translate(0 337.208)" fill="#fff" stroke-linecap="round">
            <path d="M 138.2091369628906 79.52041625976562 L 6.910450458526611 79.52041625976562 C 6.062772274017334 79.52041625976562 5.42178201675415 79.37655639648438 4.999996185302734 79.23080444335938 L 4.999996185302734 5.289618015289307 C 5.42178201675415 5.143870830535889 6.062772274017334 5.000007629394531 6.910450458526611 5.000007629394531 L 138.2091369628906 5.000007629394531 C 139.0568084716797 5.000007629394531 139.6977996826172 5.143870830535889 140.1195831298828 5.289618015289307 L 140.1195831298828 79.23080444335938 C 139.6977996826172 79.37655639648438 139.0568084716797 79.52041625976562 138.2091369628906 79.52041625976562 Z" stroke="none"/>
            <path d="M 9.999984741210938 9.999992370605469 L 9.999984741210938 74.51976776123047 L 135.1195678710938 74.49272918701172 L 135.1195678710938 9.999992370605469 L 9.999984741210938 9.999992370605469 M 6.91046142578125 -7.62939453125e-06 L 138.2091217041016 -7.62939453125e-06 C 142.0256500244141 -7.62939453125e-06 145.1195678710938 1.784965515136719 145.1195678710938 3.986824035644531 L 145.1195678710938 80.53359985351562 C 145.1195678710938 82.73545837402344 142.0256500244141 84.52043151855469 138.2091217041016 84.52043151855469 L 6.91046142578125 84.52043151855469 C 3.093902587890625 84.52043151855469 -1.52587890625e-05 82.73545837402344 -1.52587890625e-05 80.53359985351562 L -1.52587890625e-05 3.986824035644531 C -1.52587890625e-05 1.784965515136719 3.093902587890625 -7.62939453125e-06 6.91046142578125 -7.62939453125e-06 Z" stroke="none" fill="#2f32ff"/>
          </g>
          <g id="Path_22" data-name="Path 22" transform="translate(416.374 337.208)" fill="#fff" stroke-linecap="round">
            <path d="M 138.2091369628906 79.52041625976562 L 6.910450458526611 79.52041625976562 C 6.062772274017334 79.52041625976562 5.42178201675415 79.37655639648438 4.999996185302734 79.23080444335938 L 4.999996185302734 5.289618015289307 C 5.42178201675415 5.143870830535889 6.062772274017334 5.000007629394531 6.910450458526611 5.000007629394531 L 138.2091369628906 5.000007629394531 C 139.0568084716797 5.000007629394531 139.6977996826172 5.143870830535889 140.1195831298828 5.289618015289307 L 140.1195831298828 79.23080444335938 C 139.6977996826172 79.37655639648438 139.0568084716797 79.52041625976562 138.2091369628906 79.52041625976562 Z" stroke="none"/>
            <path d="M 9.999984741210938 9.999992370605469 L 9.999984741210938 74.51976776123047 L 135.1195678710938 74.49272918701172 L 135.1195678710938 9.999992370605469 L 9.999984741210938 9.999992370605469 M 6.91046142578125 -7.62939453125e-06 L 138.2091217041016 -7.62939453125e-06 C 142.0256500244141 -7.62939453125e-06 145.1195678710938 1.784965515136719 145.1195678710938 3.986824035644531 L 145.1195678710938 80.53359985351562 C 145.1195678710938 82.73545837402344 142.0256500244141 84.52043151855469 138.2091217041016 84.52043151855469 L 6.91046142578125 84.52043151855469 C 3.093902587890625 84.52043151855469 -1.52587890625e-05 82.73545837402344 -1.52587890625e-05 80.53359985351562 L -1.52587890625e-05 3.986824035644531 C -1.52587890625e-05 1.784965515136719 3.093902587890625 -7.62939453125e-06 6.91046142578125 -7.62939453125e-06 Z" stroke="none" fill="#2f32ff"/>
          </g>
          <g id="Path_20" data-name="Path 20" transform="translate(520.503 168.604)" fill="#fff" stroke-linecap="round">
            <path d="M 138.2091369628906 79.52041625976562 L 6.910450458526611 79.52041625976562 C 6.062772274017334 79.52041625976562 5.42178201675415 79.37655639648438 4.999996185302734 79.23080444335938 L 4.999996185302734 5.289618015289307 C 5.42178201675415 5.143870830535889 6.062772274017334 5.000007629394531 6.910450458526611 5.000007629394531 L 138.2091369628906 5.000007629394531 C 139.0568084716797 5.000007629394531 139.6977996826172 5.143870830535889 140.1195831298828 5.289618015289307 L 140.1195831298828 79.23080444335938 C 139.6977996826172 79.37655639648438 139.0568084716797 79.52041625976562 138.2091369628906 79.52041625976562 Z" stroke="none"/>
            <path d="M 9.999984741210938 9.999992370605469 L 9.999984741210938 74.51976776123047 L 135.1195678710938 74.49272918701172 L 135.1195678710938 9.999992370605469 L 9.999984741210938 9.999992370605469 M 6.91046142578125 -7.62939453125e-06 L 138.2091217041016 -7.62939453125e-06 C 142.0256500244141 -7.62939453125e-06 145.1195678710938 1.784965515136719 145.1195678710938 3.986824035644531 L 145.1195678710938 80.53359985351562 C 145.1195678710938 82.73545837402344 142.0256500244141 84.52043151855469 138.2091217041016 84.52043151855469 L 6.91046142578125 84.52043151855469 C 3.093902587890625 84.52043151855469 -1.52587890625e-05 82.73545837402344 -1.52587890625e-05 80.53359985351562 L -1.52587890625e-05 3.986824035644531 C -1.52587890625e-05 1.784965515136719 3.093902587890625 -7.62939453125e-06 6.91046142578125 -7.62939453125e-06 Z" stroke="none" fill="#262628"/>
          </g>
          <g id="Path_29" data-name="Path 29" transform="translate(745.607 168.604)" fill="#fff" stroke-linecap="round">
            <path d="M 138.2091369628906 79.52041625976562 L 6.910450458526611 79.52041625976562 C 6.062772274017334 79.52041625976562 5.42178201675415 79.37655639648438 4.999996185302734 79.23080444335938 L 4.999996185302734 5.289618015289307 C 5.42178201675415 5.143870830535889 6.062772274017334 5.000007629394531 6.910450458526611 5.000007629394531 L 138.2091369628906 5.000007629394531 C 139.0568084716797 5.000007629394531 139.6977996826172 5.143870830535889 140.1195831298828 5.289618015289307 L 140.1195831298828 79.23080444335938 C 139.6977996826172 79.37655639648438 139.0568084716797 79.52041625976562 138.2091369628906 79.52041625976562 Z" stroke="none"/>
            <path d="M 9.999984741210938 9.999992370605469 L 9.999984741210938 74.51976776123047 L 135.1195678710938 74.49272918701172 L 135.1195678710938 9.999992370605469 L 9.999984741210938 9.999992370605469 M 6.91046142578125 -7.62939453125e-06 L 138.2091217041016 -7.62939453125e-06 C 142.0256500244141 -7.62939453125e-06 145.1195678710938 1.784965515136719 145.1195678710938 3.986824035644531 L 145.1195678710938 80.53359985351562 C 145.1195678710938 82.73545837402344 142.0256500244141 84.52043151855469 138.2091217041016 84.52043151855469 L 6.91046142578125 84.52043151855469 C 3.093902587890625 84.52043151855469 -1.52587890625e-05 82.73545837402344 -1.52587890625e-05 80.53359985351562 L -1.52587890625e-05 3.986824035644531 C -1.52587890625e-05 1.784965515136719 3.093902587890625 -7.62939453125e-06 6.91046142578125 -7.62939453125e-06 Z" stroke="none" fill="#262628"/>
          </g>
          <g id="Path_18" data-name="Path 18" transform="translate(95.378 168.604)" fill="#fff" stroke-linecap="round">
            <path d="M 138.2091369628906 79.52041625976562 L 6.910450458526611 79.52041625976562 C 6.062772274017334 79.52041625976562 5.42178201675415 79.37655639648438 4.999996185302734 79.23080444335938 L 4.999996185302734 5.289618015289307 C 5.42178201675415 5.143870830535889 6.062772274017334 5.000007629394531 6.910450458526611 5.000007629394531 L 138.2091369628906 5.000007629394531 C 139.0568084716797 5.000007629394531 139.6977996826172 5.143870830535889 140.1195831298828 5.289618015289307 L 140.1195831298828 79.23080444335938 C 139.6977996826172 79.37655639648438 139.0568084716797 79.52041625976562 138.2091369628906 79.52041625976562 Z" stroke="none"/>
            <path d="M 9.999984741210938 9.999992370605469 L 9.999984741210938 74.51976776123047 L 135.1195678710938 74.49272918701172 L 135.1195678710938 9.999992370605469 L 9.999984741210938 9.999992370605469 M 6.91046142578125 -7.62939453125e-06 L 138.2091217041016 -7.62939453125e-06 C 142.0256500244141 -7.62939453125e-06 145.1195678710938 1.784965515136719 145.1195678710938 3.986824035644531 L 145.1195678710938 80.53359985351562 C 145.1195678710938 82.73545837402344 142.0256500244141 84.52043151855469 138.2091217041016 84.52043151855469 L 6.91046142578125 84.52043151855469 C 3.093902587890625 84.52043151855469 -1.52587890625e-05 82.73545837402344 -1.52587890625e-05 80.53359985351562 L -1.52587890625e-05 3.986824035644531 C -1.52587890625e-05 1.784965515136719 3.093902587890625 -7.62939453125e-06 6.91046142578125 -7.62939453125e-06 Z" stroke="none" fill="#2f32ff"/>
          </g>
          <g id="Group_30" data-name="Group 30" transform="translate(303.896 261.271)">
            <path id="Subtraction_1" data-name="Subtraction 1" d="M28.085,62.671H15.293V24.8L0,40.1V21.683L21.689,0,43.378,21.683V40.1L28.085,24.8Z" transform="translate(43.381 72.326) rotate(180)" fill="#2f32ff"/>
            <path id="Path_25" data-name="Path 25" d="M471.218,1184.558l-.225-16.978h13.151l-.312,20.721-7.3-9.861" transform="translate(-455.809 -1167.58)" fill="#2f32ff"/>
          </g>
          <g id="Group_40" data-name="Group 40" transform="translate(91.792 261.271)">
            <path id="Subtraction_1-2" data-name="Subtraction 1" d="M28.085,62.671H15.293V24.8L0,40.1V21.683L21.689,0,43.378,21.683V40.1L28.085,24.8Z" transform="translate(43.381 72.326) rotate(180)" fill="#2f32ff"/>
            <path id="Path_25-2" data-name="Path 25" d="M471.218,1184.558l-.225-16.978h13.151l-.312,20.721-7.3-9.861" transform="translate(-455.809 -1167.58)" fill="#2f32ff"/>
          </g>
          <g id="Group_32" data-name="Group 32" transform="translate(307.139 89.425)">
            <path id="Subtraction_1-3" data-name="Subtraction 1" d="M28.085,62.671H15.293V24.8L0,40.1V21.683L21.689,0,43.378,21.683V40.1L28.085,24.8Z" transform="translate(43.381 72.326) rotate(180)" fill="#2f32ff"/>
            <path id="Path_25-3" data-name="Path 25" d="M471.218,1184.558l-.225-16.978h13.151l-.312,20.721-7.3-9.861" transform="translate(-455.809 -1167.58)" fill="#2f32ff"/>
          </g>
          <g id="Group_33" data-name="Group 33" transform="translate(190.413 89.425)">
            <path id="Subtraction_1-4" data-name="Subtraction 1" d="M28.085,62.671H15.293V24.8L0,40.1V21.683L21.689,0,43.378,21.683V40.1L28.085,24.8Z" transform="translate(43.381 72.326) rotate(180)" fill="#2f32ff"/>
            <path id="Path_25-4" data-name="Path 25" d="M471.218,1184.558l-.225-16.978h13.151l-.312,20.721-7.3-9.861" transform="translate(-455.809 -1167.58)" fill="#2f32ff"/>
          </g>
          <g id="Group_31" data-name="Group 31" transform="translate(414.137 261.271)">
            <path id="Subtraction_1-5" data-name="Subtraction 1" d="M28.085,62.671H15.293V24.8L0,40.1V21.683L21.689,0,43.378,21.683V40.1L28.085,24.8Z" transform="translate(43.381 72.326) rotate(180)" fill="#2f32ff"/>
            <path id="Path_25-5" data-name="Path 25" d="M471.218,1184.558l-.225-16.978h13.151l-.312,20.721-7.3-9.861" transform="translate(-455.809 -1167.58)" fill="#2f32ff"/>
          </g>
        </g>
      </g>
      <text id="ROOT" transform="translate(384 2366)" fill="#2f32ff" font-size="40" font-family="NexaTextDemo-Bold, Nexa Text Demo" font-weight="700"><tspan x="0" y="0">ROOT</tspan></text>
    </g>
    <g id="Group_47" data-name="Group 47" transform="translate(915.397 3178.912) rotate(90)">
      <path id="Subtraction_1-6" data-name="Subtraction 1" d="M28.085,62.671H15.293V24.8L0,40.1V21.683L21.689,0,43.378,21.683V40.1L28.085,24.8Z" transform="translate(43.381 72.326) rotate(180)" fill="#262628"/>
      <path id="Path_25-6" data-name="Path 25" d="M471.218,1184.558l-.225-16.978h13.151l-.312,20.721-7.3-9.861" transform="translate(-455.809 -1167.58)" fill="#262628"/>
    </g>
    <g id="Group_48" data-name="Group 48" transform="translate(915.397 3127.914) rotate(90)">
      <path id="Subtraction_1-7" data-name="Subtraction 1" d="M21.689,62.671h0L0,40.988V22.573l15.294,15.3V0H28.085V37.873l15.293-15.3V40.988L21.69,62.67Z" transform="translate(43.379 62.671) rotate(180)" fill="#262628"/>
      <path id="Path_25-7" data-name="Path 25" d="M.225,3.743,0,20.721H13.151L12.839,0l-7.3,9.861" transform="translate(15.181 51.605)" fill="#262628"/>
    </g>
  </g>
</svg>
