<svg xmlns="http://www.w3.org/2000/svg" width="180.552" height="134.552" viewBox="0 0 180.552 134.552">
  <g id="Group_27" data-name="Group 27" transform="translate(-862 -454.224)">
    <g id="Group_6" data-name="Group 6" transform="translate(-60 -30)">
      <rect id="Rectangle_7" data-name="Rectangle 7" width="105" height="105" transform="translate(925 486)" fill="#fff"/>
      <g id="Group_4" data-name="Group 4" transform="translate(501.776 10)">
        <g id="Group_1" data-name="Group 1" transform="translate(420.224 474.224)">
          <g id="Outline" transform="translate(0)">
            <path id="Path_2" data-name="Path 2" d="M106.074,2H7.478A5.478,5.478,0,0,0,2,7.478v98.6a5.478,5.478,0,0,0,5.478,5.478h98.6a5.478,5.478,0,0,0,5.478-5.478V7.478A5.478,5.478,0,0,0,106.074,2ZM107.9,106.074a1.826,1.826,0,0,1-1.826,1.826H7.478a1.826,1.826,0,0,1-1.826-1.826V20.259H107.9ZM5.652,16.607V7.478A1.826,1.826,0,0,1,7.478,5.652h98.6A1.826,1.826,0,0,1,107.9,7.478v9.129Z" transform="translate(-2 -2)"/>
            <path id="Path_3" data-name="Path 3" d="M6.529,6.519A1.886,1.886,0,0,0,6,7.816a1.826,1.826,0,0,0,.146.694,1.7,1.7,0,0,0,.383.6A1.833,1.833,0,1,0,9.122,6.519a1.912,1.912,0,0,0-2.593,0Z" transform="translate(1.303 1.314)"/>
            <path id="Path_4" data-name="Path 4" d="M10.529,6.534A1.921,1.921,0,0,0,10,7.831a2.474,2.474,0,0,0,.037.365,1.161,1.161,0,0,0,.11.329,1.382,1.382,0,0,0,.164.329,2.878,2.878,0,0,0,.219.274,1.851,1.851,0,0,0,2.593,0l.219-.274a1.382,1.382,0,0,0,.164-.329,1.161,1.161,0,0,0,.11-.329,2.474,2.474,0,0,0,.037-.365,1.826,1.826,0,0,0-3.122-1.3Z" transform="translate(4.607 1.299)"/>
            <path id="Path_5" data-name="Path 5" d="M14.53,6.519a1.833,1.833,0,1,0,2.593,0,1.912,1.912,0,0,0-2.593,0Z" transform="translate(7.91 1.314)"/>
          </g>
        </g>
      </g>
    </g>
    <g id="Group_5" data-name="Group 5" transform="translate(11 -5)">
      <rect id="Rectangle_7-2" data-name="Rectangle 7" width="105" height="105" transform="translate(925 486)" fill="#fff"/>
      <g id="Group_4-2" data-name="Group 4" transform="translate(501.776 10)">
        <g id="Group_1-2" data-name="Group 1" transform="translate(420.224 474.224)">
          <g id="Outline-2" data-name="Outline" transform="translate(0)">
            <path id="Path_2-2" data-name="Path 2" d="M106.074,2H7.478A5.478,5.478,0,0,0,2,7.478v98.6a5.478,5.478,0,0,0,5.478,5.478h98.6a5.478,5.478,0,0,0,5.478-5.478V7.478A5.478,5.478,0,0,0,106.074,2ZM107.9,106.074a1.826,1.826,0,0,1-1.826,1.826H7.478a1.826,1.826,0,0,1-1.826-1.826V20.259H107.9ZM5.652,16.607V7.478A1.826,1.826,0,0,1,7.478,5.652h98.6A1.826,1.826,0,0,1,107.9,7.478v9.129Z" transform="translate(-2 -2)"/>
            <path id="Path_3-2" data-name="Path 3" d="M6.529,6.519A1.886,1.886,0,0,0,6,7.816a1.826,1.826,0,0,0,.146.694,1.7,1.7,0,0,0,.383.6A1.833,1.833,0,1,0,9.122,6.519a1.912,1.912,0,0,0-2.593,0Z" transform="translate(1.303 1.314)"/>
            <path id="Path_4-2" data-name="Path 4" d="M10.529,6.534A1.921,1.921,0,0,0,10,7.831a2.474,2.474,0,0,0,.037.365,1.161,1.161,0,0,0,.11.329,1.382,1.382,0,0,0,.164.329,2.878,2.878,0,0,0,.219.274,1.851,1.851,0,0,0,2.593,0l.219-.274a1.382,1.382,0,0,0,.164-.329,1.161,1.161,0,0,0,.11-.329,2.474,2.474,0,0,0,.037-.365,1.826,1.826,0,0,0-3.122-1.3Z" transform="translate(4.607 1.299)"/>
            <path id="Path_5-2" data-name="Path 5" d="M14.53,6.519a1.833,1.833,0,1,0,2.593,0,1.912,1.912,0,0,0-2.593,0Z" transform="translate(7.91 1.314)"/>
          </g>
        </g>
      </g>
    </g>
    <g id="Group_25" data-name="Group 25" transform="translate(7.953 -7.529)">
      <path id="Path_14" data-name="Path 14" d="M920.452,518.845l2.652-1.257,6.492,1.257,1.373,30.458-2.411,3.07-3.265-1.244-2.189,1.9-2.652-.655Z" transform="translate(4.301 3.498)" fill="#fff"/>
      <g id="hands-and-gestures" transform="translate(897 514.371)">
        <g id="Group_10" data-name="Group 10" transform="translate(10.802 3.278)">
          <g id="Group_9" data-name="Group 9" transform="translate(0 0)">
            <path id="Path_6" data-name="Path 6" d="M122.344,147.131c-1.454-3.032-6.656-7.24-11.682-11.305-2.8-2.266-5.452-4.409-7.141-6.1a1.543,1.543,0,0,0-1.615-.361c-1.04.377-1.683.667-2.189.892a5.1,5.1,0,0,1-2.072.568,1.543,1.543,0,0,0-1.13.676c-2.183,3.263-4.443,2.985-5.952,2.479-.482-.16-.568-.367-.614-.565-.324-1.355,1.3-4.51,3.411-6.619,5.017-5.02,7.6-6.276,13.068-3.834,6.2,2.772,12.411,4.943,12.472,4.964a1.545,1.545,0,1,0,1.016-2.917c-.062-.022-6.15-2.149-12.225-4.869-7.079-3.164-10.963-1.081-16.511,4.47-2.112,2.112-4.98,6.384-4.239,9.518a3.818,3.818,0,0,0,2.652,2.782c3.5,1.155,6.69.049,9.067-3.106a7.793,7.793,0,0,0,2.318-.735c.29-.13.63-.281,1.081-.463,1.766,1.658,4.149,3.587,6.659,5.616,4.538,3.671,9.685,7.832,10.842,10.24a1.809,1.809,0,0,1-.46,2.318,1.7,1.7,0,0,1-1.9.373,1.543,1.543,0,0,0-2.411,1.436,1.865,1.865,0,0,1-1.182,1.738,2.369,2.369,0,0,1-2.4.056,1.543,1.543,0,0,0-2.59.985,2.933,2.933,0,0,1-1.822,2.365,1.628,1.628,0,0,1-1.772-.275,1.562,1.562,0,0,0-1.411-.358,1.541,1.541,0,0,0-1.084.972c-.059.154-.191.525-1.636.525a8.889,8.889,0,0,1-3.782-1.294c-1.084-.713-7.879-5.782-13.747-10.7-.824-.695-2.251-2.183-3.51-3.5-1.118-1.167-2.139-2.226-2.664-2.67a1.544,1.544,0,1,0-1.994,2.359c.479.4,1.4,1.383,2.427,2.448,1.377,1.439,2.8,2.927,3.757,3.729,5.748,4.813,12.658,10.009,14.034,10.913a11.842,11.842,0,0,0,5.48,1.8,5.313,5.313,0,0,0,3.5-1.031,4.8,4.8,0,0,0,3.51-.037,6.081,6.081,0,0,0,3.214-2.967,5.97,5.97,0,0,0,3.874-.559,5.238,5.238,0,0,0,2.578-2.692,5.048,5.048,0,0,0,3.541-1.269A4.908,4.908,0,0,0,122.344,147.131Z" transform="translate(-74.642 -118.658)" fill="#2f32ff"/>
          </g>
        </g>
        <g id="Group_12" data-name="Group 12" transform="translate(15.436 6.173)">
          <g id="Group_11" data-name="Group 11" transform="translate(0 0)">
            <path id="Path_7" data-name="Path 7" d="M122.1,138.663H108.21a1.544,1.544,0,0,0,0,3.087H122.1a1.544,1.544,0,1,0,0-3.087Z" transform="translate(-106.666 -138.663)" fill="#2f32ff"/>
          </g>
        </g>
        <g id="Group_14" data-name="Group 14" transform="translate(55.687 27.781)">
          <g id="Group_13" data-name="Group 13" transform="translate(0 0)">
            <path id="Path_8" data-name="Path 8" d="M392.149,288.662a1.54,1.54,0,0,0-2.142-.42l-4.513,3.032a1.544,1.544,0,0,0,1.723,2.562l4.513-3.032A1.545,1.545,0,0,0,392.149,288.662Z" transform="translate(-384.811 -287.977)" fill="#2f32ff"/>
          </g>
        </g>
        <g id="Group_16" data-name="Group 16" transform="translate(41.68 26.239)">
          <g id="Group_15" data-name="Group 15" transform="translate(0 0)">
            <path id="Path_9" data-name="Path 9" d="M299.779,286.911c-1.105-.871-6.048-5.931-9.1-9.117a1.544,1.544,0,0,0-2.229,2.136c.793.827,7.792,8.122,9.419,9.407a1.537,1.537,0,0,0,.954.33,1.56,1.56,0,0,0,1.216-.59A1.543,1.543,0,0,0,299.779,286.911Z" transform="translate(-288.016 -277.317)" fill="#2f32ff"/>
          </g>
        </g>
        <g id="Group_18" data-name="Group 18" transform="translate(37.047 30.872)">
          <g id="Group_17" data-name="Group 17" transform="translate(0 0)">
            <path id="Path_10" data-name="Path 10" d="M266.232,317.394c-1.849-1.479-6.5-6.415-7.545-7.557a1.545,1.545,0,0,0-2.275,2.09c.056.059,5.6,6.045,7.891,7.879a1.544,1.544,0,0,0,1.93-2.411Z" transform="translate(-256.005 -309.337)" fill="#2f32ff"/>
          </g>
        </g>
        <g id="Group_20" data-name="Group 20" transform="translate(30.874 33.956)">
          <g id="Group_19" data-name="Group 19" transform="translate(0 0)">
            <path id="Path_11" data-name="Path 11" d="M223.6,338.726c-2.2-1.855-6.705-6.65-7.585-7.592a1.544,1.544,0,0,0-2.257,2.109c1.266,1.355,5.576,5.924,7.851,7.845a1.545,1.545,0,1,0,1.991-2.362Z" transform="translate(-213.343 -330.644)" fill="#2f32ff"/>
          </g>
        </g>
        <g id="Group_22" data-name="Group 22" transform="translate(0 0)">
          <g id="Group_21" data-name="Group 21" transform="translate(0 0)">
            <path id="Path_12" data-name="Path 12" d="M18.042,99.513C15.4,97.006,4.816,96.194,1.636,96.006A1.542,1.542,0,0,0,0,97.546v27.785a1.544,1.544,0,0,0,1.544,1.544h9.262a1.542,1.542,0,0,0,1.466-1.065c.225-.692,5.545-17.017,6.245-25.044A1.536,1.536,0,0,0,18.042,99.513ZM9.678,123.788H3.087V99.2c4.961.392,10.314,1.244,12.259,2.189C14.529,108.151,10.827,120.163,9.678,123.788Z" transform="translate(0 -96.003)" fill="#2f32ff"/>
          </g>
        </g>
        <g id="Group_24" data-name="Group 24" transform="translate(52.538 3.086)">
          <g id="Group_23" data-name="Group 23" transform="translate(0 0)">
            <path id="Path_13" data-name="Path 13" d="M383.058,117.33c-12.12,0-18.844,3.1-19.125,3.232a1.536,1.536,0,0,0-.824.96,1.557,1.557,0,0,0,.17,1.253c1.908,3.072,7.882,20.132,9.03,24.293A1.543,1.543,0,0,0,373.8,148.2h9.262a1.544,1.544,0,0,0,1.544-1.544V118.874A1.542,1.542,0,0,0,383.058,117.33Zm-1.543,27.785h-6.564c-1.463-4.767-5.786-17.2-8.2-22.333a50.277,50.277,0,0,1,14.76-2.346Z" transform="translate(-363.046 -117.33)" fill="#2f32ff"/>
          </g>
        </g>
      </g>
    </g>
  </g>
</svg>
