<svg xmlns="http://www.w3.org/2000/svg" width="137.925" height="131.228" viewBox="0 0 137.925 131.228">
  <g id="Group_26" data-name="Group 26" transform="translate(-415 -474.224)">
    <g id="Group_7" data-name="Group 7" transform="translate(-507 -10)">
      <rect id="Rectangle_7" data-name="Rectangle 7" width="105" height="105" transform="translate(925 486)" fill="#fff"/>
      <g id="Group_4" data-name="Group 4" transform="translate(501.776 10)">
        <g id="Group_1" data-name="Group 1" transform="translate(420.224 474.224)">
          <g id="Outline" transform="translate(0)">
            <path id="Path_2" data-name="Path 2" d="M106.074,2H7.478A5.478,5.478,0,0,0,2,7.478v98.6a5.478,5.478,0,0,0,5.478,5.478h98.6a5.478,5.478,0,0,0,5.478-5.478V7.478A5.478,5.478,0,0,0,106.074,2ZM107.9,106.074a1.826,1.826,0,0,1-1.826,1.826H7.478a1.826,1.826,0,0,1-1.826-1.826V20.259H107.9ZM5.652,16.607V7.478A1.826,1.826,0,0,1,7.478,5.652h98.6A1.826,1.826,0,0,1,107.9,7.478v9.129Z" transform="translate(-2 -2)"/>
            <path id="Path_3" data-name="Path 3" d="M6.529,6.519A1.886,1.886,0,0,0,6,7.816a1.826,1.826,0,0,0,.146.694,1.7,1.7,0,0,0,.383.6A1.833,1.833,0,1,0,9.122,6.519a1.912,1.912,0,0,0-2.593,0Z" transform="translate(1.303 1.314)"/>
            <path id="Path_4" data-name="Path 4" d="M10.529,6.534A1.921,1.921,0,0,0,10,7.831a2.474,2.474,0,0,0,.037.365,1.161,1.161,0,0,0,.11.329,1.382,1.382,0,0,0,.164.329,2.878,2.878,0,0,0,.219.274,1.851,1.851,0,0,0,2.593,0l.219-.274a1.382,1.382,0,0,0,.164-.329,1.161,1.161,0,0,0,.11-.329,2.474,2.474,0,0,0,.037-.365,1.826,1.826,0,0,0-3.122-1.3Z" transform="translate(4.607 1.299)"/>
            <path id="Path_5" data-name="Path 5" d="M14.53,6.519a1.833,1.833,0,1,0,2.593,0,1.912,1.912,0,0,0-2.593,0Z" transform="translate(7.91 1.314)"/>
          </g>
        </g>
      </g>
    </g>
    <g id="Group_8" data-name="Group 8">
      <circle id="Ellipse_2" data-name="Ellipse 2" cx="33" cy="33" r="33" transform="translate(484 536)" fill="#fff"/>
      <g id="Group_2" data-name="Group 2" transform="translate(-80.224 33)">
        <path id="seo-and-web" d="M61.4,10.541a35.962,35.962,0,1,0,0,50.858A35.943,35.943,0,0,0,61.4,10.541ZM59.9,56.273a36.048,36.048,0,0,0-5.372-3.978,58.162,58.162,0,0,0,2.169-14.033H67.267A31.1,31.1,0,0,1,59.9,56.273ZM4.674,38.262H15.247a58.162,58.162,0,0,0,2.169,14.033,36.048,36.048,0,0,0-5.372,3.978A31.1,31.1,0,0,1,4.674,38.262Zm7.37-22.595a36.048,36.048,0,0,0,5.372,3.978,58.161,58.161,0,0,0-2.169,14.033H4.674A31.1,31.1,0,0,1,12.044,15.667Zm21.634,4.452A31.135,31.135,0,0,1,23,17.412c1.943-5,5.525-11,10.682-12.492Zm0,4.592v8.967H19.832A54,54,0,0,1,21.57,21.8,35.722,35.722,0,0,0,33.679,24.711Zm0,13.551v8.967A35.722,35.722,0,0,0,21.57,50.144a54,54,0,0,1-1.738-11.882Zm0,13.559v15.2C28.522,65.532,24.94,59.532,23,54.528A31.135,31.135,0,0,1,33.679,51.821Zm4.583,0a31.135,31.135,0,0,1,10.682,2.707c-1.943,5-5.525,11-10.682,12.492Zm0-4.592V38.262H52.109a54,54,0,0,1-1.738,11.882,35.722,35.722,0,0,0-12.109-2.914Zm0-13.551V24.711A35.722,35.722,0,0,0,50.371,21.8a54,54,0,0,1,1.738,11.882Zm0-13.559V4.921C43.419,6.408,47,12.409,48.945,17.412A31.138,31.138,0,0,1,38.262,20.119ZM48.556,7.209A31.241,31.241,0,0,1,56.68,12.4a31.5,31.5,0,0,1-3.687,2.8,34.5,34.5,0,0,0-4.437-7.986ZM18.948,15.195a31.511,31.511,0,0,1-3.687-2.8,31.241,31.241,0,0,1,8.124-5.188,34.515,34.515,0,0,0-4.437,7.986Zm0,41.551a34.506,34.506,0,0,0,4.437,7.986,31.241,31.241,0,0,1-8.124-5.188A31.5,31.5,0,0,1,18.948,56.746Zm34.045,0a31.513,31.513,0,0,1,3.687,2.8,31.241,31.241,0,0,1-8.124,5.188,34.5,34.5,0,0,0,4.437-7.986Zm3.7-23.067a58.16,58.16,0,0,0-2.169-14.033A36.055,36.055,0,0,0,59.9,15.667a31.1,31.1,0,0,1,7.37,18.011Z" transform="translate(561.208 500.512)" fill="#2f32ff"/>
      </g>
    </g>
  </g>
</svg>
